<svg width="380" height="5003" viewBox="0 0 380 5003" fill="none" xmlns="http://www.w3.org/2000/svg">
<g clip-path="url(#clip0_1082_4810)">
<rect width="380" height="5003" fill="#0F1118"/>
<g opacity="0.4" filter="url(#filter0_f_1082_4810)">
<ellipse cx="290" cy="3815.5" rx="193" ry="155.5" fill="#ABF6C8"/>
</g>
<g opacity="0.4" filter="url(#filter1_f_1082_4810)">
<ellipse cx="288" cy="2070.5" rx="199" ry="160.5" fill="#ABF6C8"/>
</g>
<g opacity="0.4" filter="url(#filter2_f_1082_4810)">
<ellipse cx="120" cy="2830.5" rx="193" ry="155.5" fill="#ABF6C8"/>
</g>
<g opacity="0.5" filter="url(#filter3_f_1082_4810)">
<ellipse cx="37.9061" cy="511.274" rx="281.459" ry="239.773" transform="rotate(106.236 37.9061 511.274)" fill="#ABF6C8"/>
</g>
<path opacity="0.1" d="M20 0L20 803M76.6667 0L76.6667 803M133.333 0L133.333 803M190 0L190 803M246.667 0L246.667 803M303.333 0L303.333 803M360 0V803" stroke="url(#paint0_linear_1082_4810)"/>
<path opacity="0.1" d="M20 1600L20 2556M76.6667 1600L76.6667 2556M133.333 1600L133.333 2556M190 1600L190 2556M246.667 1600L246.667 2556M303.333 1600L303.333 2556M360 1600V2556" stroke="url(#paint1_linear_1082_4810)"/>
<path opacity="0.1" d="M20 3333L20 4289M76.6667 3333L76.6667 4289M133.333 3333L133.333 4289M190 3333L190 4289M246.667 3333L246.667 4289M303.333 3333L303.333 4289M360 3333V4289" stroke="url(#paint2_linear_1082_4810)"/>
<circle opacity="0.50828" cx="322.705" cy="45.384" r="0.614566" transform="rotate(-6.25866 322.705 45.384)" fill="white" fill-opacity="0.8"/>
<circle opacity="0.502992" cx="26.9747" cy="414.706" r="0.614566" transform="rotate(14.0239 26.9747 414.706)" fill="white" fill-opacity="0.8"/>
<circle opacity="0.102868" cx="263.047" cy="63.602" r="0.614566" transform="rotate(27.2063 263.047 63.602)" fill="white" fill-opacity="0.8"/>
<circle opacity="0.931859" cx="353.092" cy="52.6839" r="0.614566" transform="rotate(169.686 353.092 52.6839)" fill="white" fill-opacity="0.8"/>
<circle opacity="0.643457" cx="214.074" cy="338.345" r="0.614566" transform="rotate(-46.3148 214.074 338.345)" fill="white" fill-opacity="0.8"/>
<circle opacity="0.805087" cx="300.672" cy="413.054" r="0.614566" transform="rotate(-46.3148 300.672 413.054)" fill="white" fill-opacity="0.8"/>
<circle opacity="0.990861" cx="230.646" cy="28.8806" r="0.614566" transform="rotate(-160.906 230.646 28.8806)" fill="white" fill-opacity="0.8"/>
<circle opacity="0.780821" cx="171.868" cy="219.207" r="0.614566" transform="rotate(95.1505 171.868 219.207)" fill="white" fill-opacity="0.8"/>
<circle opacity="0.10496" cx="146.16" cy="13.1704" r="0.614566" transform="rotate(-142.652 146.16 13.1704)" fill="white" fill-opacity="0.8"/>
<circle opacity="0.241726" cx="299.619" cy="371.861" r="0.614566" transform="rotate(-58.4829 299.619 371.861)" fill="white" fill-opacity="0.8"/>
<circle opacity="0.440308" cx="300.409" cy="153.838" r="0.614566" transform="rotate(-64.5687 300.409 153.838)" fill="white" fill-opacity="0.8"/>
<circle opacity="0.376768" cx="367.083" cy="341.59" r="0.614566" transform="rotate(2.36116 367.083 341.59)" fill="white" fill-opacity="0.8"/>
<circle opacity="0.858704" cx="365.349" cy="388.123" r="0.614566" transform="rotate(62.6998 365.349 388.123)" fill="white" fill-opacity="0.8"/>
<circle opacity="0.191584" cx="251.248" cy="370.999" r="0.614566" transform="rotate(-169.526 251.248 370.999)" fill="white" fill-opacity="0.8"/>
<circle opacity="0.705646" cx="312.402" cy="292.21" r="0.614566" transform="rotate(171.206 312.402 292.21)" fill="white" fill-opacity="0.8"/>
<circle opacity="0.129981" cx="54.8713" cy="235.028" r="0.614566" transform="rotate(36.8404 54.8713 235.028)" fill="white" fill-opacity="0.8"/>
<circle opacity="0.0888689" cx="180.149" cy="130.583" r="0.614566" transform="rotate(77.9109 180.149 130.583)" fill="white" fill-opacity="0.8"/>
<circle opacity="0.972957" cx="242.159" cy="187.158" r="0.614566" transform="rotate(97.1791 242.159 187.158)" fill="white" fill-opacity="0.8"/>
<circle opacity="0.0850425" cx="162.773" cy="16.0773" r="0.614566" transform="rotate(4.38975 162.773 16.0773)" fill="white" fill-opacity="0.8"/>
<circle opacity="0.667326" cx="52.0128" cy="344.441" r="0.614566" transform="rotate(-127.441 52.0128 344.441)" fill="white" fill-opacity="0.8"/>
<circle opacity="0.0353912" cx="272.982" cy="228.151" r="0.614566" transform="rotate(-167.498 272.982 228.151)" fill="white" fill-opacity="0.8"/>
<circle opacity="0.398368" cx="142.778" cy="51.4045" r="0.614566" transform="rotate(9.96667 142.778 51.4045)" fill="white" fill-opacity="0.8"/>
<circle opacity="0.685916" cx="189.027" cy="123.934" r="0.614566" transform="rotate(-154.315 189.027 123.934)" fill="white" fill-opacity="0.8"/>
<circle opacity="0.509122" cx="358.928" cy="113.48" r="0.614566" transform="rotate(30.2492 358.928 113.48)" fill="white" fill-opacity="0.8"/>
<circle opacity="0.0935417" cx="162.802" cy="95.2934" r="0.614566" transform="rotate(-161.921 162.802 95.2934)" fill="white" fill-opacity="0.8"/>
<circle opacity="0.254026" cx="336.399" cy="122.583" r="0.614566" transform="rotate(-127.441 336.399 122.583)" fill="white" fill-opacity="0.8"/>
<circle opacity="0.281129" cx="10.1246" cy="207.911" r="0.614566" transform="rotate(154.98 10.1246 207.911)" fill="white" fill-opacity="0.8"/>
<circle opacity="0.865773" cx="102.76" cy="131.318" r="0.614566" transform="rotate(134.192 102.76 131.318)" fill="white" fill-opacity="0.8"/>
<circle opacity="0.394488" cx="370.72" cy="56.0128" r="0.614566" transform="rotate(179.825 370.72 56.0128)" fill="white" fill-opacity="0.8"/>
<circle opacity="0.608867" cx="213.15" cy="41.8401" r="0.614566" transform="rotate(130.135 213.15 41.8401)" fill="white" fill-opacity="0.8"/>
<circle opacity="0.654983" cx="18.6855" cy="324.84" r="0.614566" transform="rotate(-7.27295 18.6855 324.84)" fill="white" fill-opacity="0.8"/>
<circle opacity="0.897421" cx="13.9898" cy="144.428" r="0.614566" transform="rotate(54.08 13.9898 144.428)" fill="white" fill-opacity="0.8"/>
<circle opacity="0.187629" cx="285.531" cy="134.188" r="0.614566" transform="rotate(-9.80697 285.531 134.188)" fill="white" fill-opacity="0.8"/>
<circle opacity="0.30742" cx="273.039" cy="36.0951" r="0.614566" transform="rotate(-1.18716 273.039 36.0951)" fill="white" fill-opacity="0.8"/>
<circle opacity="0.904846" cx="312.411" cy="7.44951" r="0.614566" transform="rotate(-133.018 312.411 7.44951)" fill="white" fill-opacity="0.8"/>
<circle opacity="0.934101" cx="151.649" cy="125.747" r="0.614566" transform="rotate(-27.0466 151.649 125.747)" fill="white" fill-opacity="0.8"/>
<circle opacity="0.0179334" cx="93.645" cy="160.018" r="0.614566" transform="rotate(63.7141 93.645 160.018)" fill="white" fill-opacity="0.8"/>
<circle opacity="0.822312" cx="30.6131" cy="217.327" r="0.614566" transform="rotate(153.461 30.6131 217.327)" fill="white" fill-opacity="0.8"/>
<circle opacity="0.232044" cx="204.625" cy="130.281" r="0.614566" transform="rotate(107.319 204.625 130.281)" fill="white" fill-opacity="0.8"/>
<circle opacity="0.113797" cx="372.49" cy="165.832" r="0.614566" transform="rotate(93.1219 372.49 165.832)" fill="white" fill-opacity="0.8"/>
<circle opacity="0.26659" cx="93.8454" cy="90.3629" r="0.614566" transform="rotate(-89.4139 93.8454 90.3629)" fill="white" fill-opacity="0.8"/>
<circle opacity="0.01" cx="264.5" cy="175.972" r="0.614566" transform="rotate(60.6712 264.5 175.972)" fill="white" fill-opacity="0.8"/>
<circle opacity="0.334777" cx="215.893" cy="252.654" r="0.614566" transform="rotate(11.9953 215.893 252.654)" fill="white" fill-opacity="0.8"/>
<circle opacity="0.395648" cx="228.01" cy="293.853" r="0.614566" transform="rotate(15.0382 228.01 293.853)" fill="white" fill-opacity="0.8"/>
<circle opacity="0.142849" cx="367.741" cy="316.884" r="0.614566" transform="rotate(-166.483 367.741 316.884)" fill="white" fill-opacity="0.8"/>
<circle opacity="0.370704" cx="354.89" cy="298.414" r="0.614566" transform="rotate(154.98 354.89 298.414)" fill="white" fill-opacity="0.8"/>
<circle opacity="0.106047" cx="18.8466" cy="329.584" r="0.614566" transform="rotate(33.7975 18.8466 329.584)" fill="white" fill-opacity="0.8"/>
<circle opacity="0.550485" cx="113.823" cy="310.986" r="0.614566" transform="rotate(-173.074 113.823 310.986)" fill="white" fill-opacity="0.8"/>
<circle opacity="0.199486" cx="202.796" cy="268.555" r="0.614566" transform="rotate(52.0514 202.796 268.555)" fill="white" fill-opacity="0.8"/>
<circle opacity="0.250676" cx="22.398" cy="329.567" r="0.614566" transform="rotate(-120.85 22.398 329.567)" fill="white" fill-opacity="0.8"/>
<circle opacity="0.77629" cx="62.6748" cy="102.641" r="0.614566" transform="rotate(-79.7798 62.6748 102.641)" fill="white" fill-opacity="0.8"/>
<circle opacity="0.941685" cx="303.879" cy="389.185" r="0.614566" transform="rotate(116.953 303.879 389.185)" fill="white" fill-opacity="0.8"/>
<circle opacity="0.500588" cx="-0.860137" cy="324.594" r="0.614566" transform="rotate(130.135 -0.860137 324.594)" fill="white" fill-opacity="0.8"/>
<circle opacity="0.475102" cx="135.977" cy="254.562" r="0.614566" transform="rotate(-62.5401 135.977 254.562)" fill="white" fill-opacity="0.8"/>
<circle opacity="0.647799" cx="44.0165" cy="189.623" r="0.614566" transform="rotate(26.192 44.0165 189.623)" fill="white" fill-opacity="0.8"/>
<circle opacity="0.335955" cx="5.06553" cy="425.037" r="0.614566" transform="rotate(132.164 5.06553 425.037)" fill="white" fill-opacity="0.8"/>
<circle opacity="0.427988" cx="135.093" cy="89.5757" r="0.614566" transform="rotate(81.4592 135.093 89.5757)" fill="white" fill-opacity="0.8"/>
<circle opacity="0.359974" cx="112.202" cy="70.6428" r="0.614566" transform="rotate(72.8394 112.202 70.6428)" fill="white" fill-opacity="0.8"/>
<circle opacity="0.423908" cx="146.263" cy="400.7" r="0.614566" transform="rotate(132.164 146.263 400.7)" fill="white" fill-opacity="0.8"/>
<circle opacity="0.537101" cx="350.771" cy="94.4973" r="0.614566" transform="rotate(31.2635 350.771 94.4973)" fill="white" fill-opacity="0.8"/>
<circle opacity="0.057336" cx="283.127" cy="355.458" r="0.614566" transform="rotate(-22.484 283.127 355.458)" fill="white" fill-opacity="0.8"/>
<circle opacity="0.841539" cx="253.203" cy="348.52" r="0.614566" transform="rotate(25.1777 253.203 348.52)" fill="white" fill-opacity="0.8"/>
<circle opacity="0.0703849" cx="293.757" cy="326.289" r="0.614566" transform="rotate(137.235 293.757 326.289)" fill="white" fill-opacity="0.8"/>
<circle opacity="0.147997" cx="14.7011" cy="141.578" r="0.614566" transform="rotate(-147.724 14.7011 141.578)" fill="white" fill-opacity="0.8"/>
<circle opacity="0.206917" cx="301.461" cy="405.284" r="0.614566" transform="rotate(92.1076 301.461 405.284)" fill="white" fill-opacity="0.8"/>
<circle opacity="0.433392" cx="261.234" cy="179.966" r="0.614566" transform="rotate(-57.9775 261.234 179.966)" fill="white" fill-opacity="0.8"/>
<circle opacity="0.880671" cx="214.607" cy="357.955" r="0.614566" transform="rotate(-65.583 214.607 357.955)" fill="white" fill-opacity="0.8"/>
<circle opacity="0.0638371" cx="109.148" cy="169.326" r="0.614566" transform="rotate(25.1777 109.148 169.326)" fill="white" fill-opacity="0.8"/>
<circle opacity="0.54331" cx="107.921" cy="36.8134" r="0.614566" transform="rotate(117.967 107.921 36.8134)" fill="white" fill-opacity="0.8"/>
<circle opacity="0.702723" cx="109.038" cy="166.626" r="0.614566" transform="rotate(-87.3853 109.038 166.626)" fill="white" fill-opacity="0.8"/>
<circle opacity="0.59558" cx="379.155" cy="360.494" r="0.614566" transform="rotate(-38.7093 379.155 360.494)" fill="white" fill-opacity="0.8"/>
<circle opacity="0.0735306" cx="191.863" cy="141.381" r="0.614566" transform="rotate(31.7689 191.863 141.381)" fill="white" fill-opacity="0.8"/>
<circle opacity="0.0287922" cx="6.20053" cy="182.257" r="0.614566" transform="rotate(93.1219 6.20053 182.257)" fill="white" fill-opacity="0.8"/>
<circle opacity="0.98927" cx="132.386" cy="369.748" r="0.614566" transform="rotate(-178.146 132.386 369.748)" fill="white" fill-opacity="0.8"/>
<circle opacity="0.414256" cx="188.306" cy="451.256" r="0.614566" transform="rotate(171.206 188.306 451.256)" fill="white" fill-opacity="0.8"/>
<circle opacity="0.935556" cx="126.78" cy="32.7918" r="0.614566" transform="rotate(79.9395 126.78 32.7918)" fill="white" fill-opacity="0.8"/>
<circle opacity="0.763854" cx="241.673" cy="457.537" r="0.614566" transform="rotate(-119.836 241.673 457.537)" fill="white" fill-opacity="0.8"/>
<circle opacity="0.516275" cx="368.137" cy="358.856" r="0.614566" transform="rotate(-13.8642 368.137 358.856)" fill="white" fill-opacity="0.8"/>
<circle opacity="0.554994" cx="170.114" cy="407.698" r="0.614566" transform="rotate(-105.639 170.114 407.698)" fill="white" fill-opacity="0.8"/>
<circle opacity="0.233866" cx="29.194" cy="355.469" r="0.614566" transform="rotate(-36.6807 29.194 355.469)" fill="white" fill-opacity="0.8"/>
<circle opacity="0.354107" cx="135.417" cy="164.452" r="0.614566" transform="rotate(94.1362 135.417 164.452)" fill="white" fill-opacity="0.8"/>
<circle opacity="0.616737" cx="161.321" cy="412.962" r="0.614566" transform="rotate(-38.7093 161.321 412.962)" fill="white" fill-opacity="0.8"/>
<circle opacity="0.115971" cx="-0.00915068" cy="157.847" r="0.614566" transform="rotate(-168.512 -0.00915068 157.847)" fill="white" fill-opacity="0.8"/>
<circle opacity="0.989522" cx="140.611" cy="332.487" r="0.614566" transform="rotate(131.149 140.611 332.487)" fill="white" fill-opacity="0.8"/>
<circle opacity="0.547876" cx="129.823" cy="257.162" r="0.614566" transform="rotate(104.785 129.823 257.162)" fill="white" fill-opacity="0.8"/>
<circle opacity="0.15399" cx="121.895" cy="432.31" r="0.614566" transform="rotate(22.6437 121.895 432.31)" fill="white" fill-opacity="0.8"/>
<circle opacity="0.343149" cx="42.7976" cy="82.5083" r="0.614566" transform="rotate(-133.018 42.7976 82.5083)" fill="white" fill-opacity="0.8"/>
<circle opacity="0.114129" cx="247.954" cy="57.778" r="0.614566" transform="rotate(4.38975 247.954 57.778)" fill="white" fill-opacity="0.8"/>
<circle opacity="0.110265" cx="161.742" cy="7.24359" r="0.614566" transform="rotate(146.36 161.742 7.24359)" fill="white" fill-opacity="0.8"/>
<circle opacity="0.131768" cx="124.841" cy="426.612" r="0.614566" transform="rotate(-61.5258 124.841 426.612)" fill="white" fill-opacity="0.8"/>
<circle opacity="0.583079" cx="303.819" cy="132.107" r="0.614566" transform="rotate(-54.9346 303.819 132.107)" fill="white" fill-opacity="0.8"/>
<circle opacity="0.919099" cx="117.895" cy="120.97" r="0.614566" transform="rotate(55.0943 117.895 120.97)" fill="white" fill-opacity="0.8"/>
<circle opacity="0.681934" cx="195.56" cy="60.4931" r="0.614566" transform="rotate(6.41835 195.56 60.4931)" fill="white" fill-opacity="0.8"/>
<circle opacity="0.799721" cx="89.5613" cy="134.525" r="0.614566" transform="rotate(-176.117 89.5613 134.525)" fill="white" fill-opacity="0.8"/>
<circle opacity="0.773268" cx="116.14" cy="235.559" r="0.614566" transform="rotate(-47.3291 116.14 235.559)" fill="white" fill-opacity="0.8"/>
<circle opacity="0.290613" cx="256.661" cy="75.3058" r="0.614566" transform="rotate(122.53 256.661 75.3058)" fill="white" fill-opacity="0.8"/>
<circle opacity="0.0158895" cx="359.289" cy="90.0578" r="0.614566" transform="rotate(-20.4554 359.289 90.0578)" fill="white" fill-opacity="0.8"/>
<circle opacity="0.971112" cx="138.264" cy="337.963" r="0.614566" transform="rotate(-130.484 138.264 337.963)" fill="white" fill-opacity="0.8"/>
<circle opacity="0.484413" cx="98.7128" cy="60.1235" r="0.614566" transform="rotate(138.755 98.7128 60.1235)" fill="white" fill-opacity="0.8"/>
<circle opacity="0.820992" cx="182.829" cy="297.72" r="0.614566" transform="rotate(118.981 182.829 297.72)" fill="white" fill-opacity="0.8"/>
<circle opacity="0.79575" cx="86.8778" cy="376.487" r="0.614566" transform="rotate(175.263 86.8778 376.487)" fill="white" fill-opacity="0.8"/>
<circle opacity="0.712827" cx="250.806" cy="376.754" r="0.614566" transform="rotate(72.3339 250.806 376.754)" fill="white" fill-opacity="0.8"/>
<circle opacity="0.479832" cx="157.916" cy="46.5568" r="0.614566" transform="rotate(-32.1181 157.916 46.5568)" fill="white" fill-opacity="0.8"/>
<circle opacity="0.288881" cx="144.455" cy="166.436" r="0.614566" transform="rotate(50.0228 144.455 166.436)" fill="white" fill-opacity="0.8"/>
<circle opacity="0.876318" cx="308.513" cy="228.156" r="0.614566" transform="rotate(-150.258 308.513 228.156)" fill="white" fill-opacity="0.8"/>
<circle opacity="0.658613" cx="76.3535" cy="171.713" r="0.614566" transform="rotate(-4.23006 76.3535 171.713)" fill="white" fill-opacity="0.8"/>
<circle opacity="0.982824" cx="114.673" cy="440.677" r="0.614566" transform="rotate(20.6151 114.673 440.677)" fill="white" fill-opacity="0.8"/>
<circle opacity="0.222912" cx="151.36" cy="302.646" r="0.614566" transform="rotate(-88.3996 151.36 302.646)" fill="white" fill-opacity="0.8"/>
<circle opacity="0.440162" cx="270.131" cy="400.474" r="0.614566" transform="rotate(-105.639 270.131 400.474)" fill="white" fill-opacity="0.8"/>
<circle opacity="0.418979" cx="313.275" cy="111.684" r="0.614566" transform="rotate(-150.258 313.275 111.684)" fill="white" fill-opacity="0.8"/>
<circle opacity="0.757976" cx="355.114" cy="208.485" r="0.614566" transform="rotate(164.614 355.114 208.485)" fill="white" fill-opacity="0.8"/>
<circle opacity="0.46509" cx="52.2423" cy="247.879" r="0.614566" transform="rotate(114.924 52.2423 247.879)" fill="white" fill-opacity="0.8"/>
<circle opacity="0.574483" cx="287.914" cy="34.1453" r="0.614566" transform="rotate(113.91 287.914 34.1453)" fill="white" fill-opacity="0.8"/>
<circle opacity="0.79191" cx="298.758" cy="105.601" r="0.614566" transform="rotate(-93.9765 298.758 105.601)" fill="white" fill-opacity="0.8"/>
<circle opacity="0.0748675" cx="37.2473" cy="138.806" r="0.614566" transform="rotate(-53.9203 37.2473 138.806)" fill="white" fill-opacity="0.8"/>
<circle opacity="0.991435" cx="241.266" cy="171.076" r="0.614566" transform="rotate(82.4735 241.266 171.076)" fill="white" fill-opacity="0.8"/>
<circle opacity="0.842651" cx="74.6593" cy="28.141" r="0.614566" transform="rotate(-65.583 74.6593 28.141)" fill="white" fill-opacity="0.8"/>
<circle opacity="0.910974" cx="195.371" cy="178.453" r="0.614566" transform="rotate(164.614 195.371 178.453)" fill="white" fill-opacity="0.8"/>
<circle opacity="0.584247" cx="28.7827" cy="221.034" r="0.614566" transform="rotate(-34.6521 28.7827 221.034)" fill="white" fill-opacity="0.8"/>
<circle opacity="0.0707568" cx="279.468" cy="15.729" r="0.614566" transform="rotate(-51.8917 279.468 15.729)" fill="white" fill-opacity="0.8"/>
<circle opacity="0.954527" cx="200.029" cy="400.126" r="0.614566" transform="rotate(40.3887 200.029 400.126)" fill="white" fill-opacity="0.8"/>
<circle opacity="0.37536" cx="279.811" cy="19.4661" r="0.614566" transform="rotate(-140.624 279.811 19.4661)" fill="white" fill-opacity="0.8"/>
<circle opacity="0.704509" cx="245.238" cy="71.503" r="0.614566" transform="rotate(-109.188 245.238 71.503)" fill="white" fill-opacity="0.8"/>
<circle opacity="0.564984" cx="368.371" cy="280.025" r="0.614566" transform="rotate(25.1777 368.371 280.025)" fill="white" fill-opacity="0.8"/>
<circle opacity="0.475559" cx="345.991" cy="383.952" r="0.614566" transform="rotate(159.037 345.991 383.952)" fill="white" fill-opacity="0.8"/>
<circle opacity="0.566601" cx="104.025" cy="237.52" r="0.614566" transform="rotate(42.4173 104.025 237.52)" fill="white" fill-opacity="0.8"/>
<circle opacity="0.70491" cx="234.294" cy="452.836" r="0.614566" transform="rotate(-57.9775 234.294 452.836)" fill="white" fill-opacity="0.8"/>
<circle opacity="0.243785" cx="265.702" cy="13.4395" r="0.614566" transform="rotate(-99.048 265.702 13.4395)" fill="white" fill-opacity="0.8"/>
<circle opacity="0.821042" cx="272.76" cy="53.3529" r="0.614566" transform="rotate(-5.24436 272.76 53.3529)" fill="white" fill-opacity="0.8"/>
<circle opacity="0.378059" cx="88.231" cy="190.915" r="0.614566" transform="rotate(-64.5687 88.231 190.915)" fill="white" fill-opacity="0.8"/>
<circle opacity="0.512573" cx="303.326" cy="248.63" r="0.614566" transform="rotate(-159.892 303.326 248.63)" fill="white" fill-opacity="0.8"/>
<circle opacity="0.137126" cx="273.555" cy="94.1084" r="0.614566" transform="rotate(61.6855 273.555 94.1084)" fill="white" fill-opacity="0.8"/>
<circle opacity="0.972027" cx="59.7017" cy="244.092" r="0.614566" transform="rotate(-81.8084 59.7017 244.092)" fill="white" fill-opacity="0.8"/>
<circle opacity="0.672419" cx="107.283" cy="290.678" r="0.614566" transform="rotate(-14.8785 107.283 290.678)" fill="white" fill-opacity="0.8"/>
<circle opacity="0.817859" cx="286.878" cy="170.619" r="0.614566" transform="rotate(176.277 286.878 170.619)" fill="white" fill-opacity="0.8"/>
<circle opacity="0.705851" cx="190.578" cy="75.3535" r="0.614566" transform="rotate(97.6845 190.578 75.3535)" fill="white" fill-opacity="0.8"/>
<circle opacity="0.635222" cx="25.5736" cy="370.068" r="0.614566" transform="rotate(71.3196 25.5736 370.068)" fill="white" fill-opacity="0.8"/>
<circle opacity="0.329161" cx="352.337" cy="298.864" r="0.614566" transform="rotate(144.841 352.337 298.864)" fill="white" fill-opacity="0.8"/>
<circle opacity="0.842036" cx="80.8093" cy="69.5061" r="0.614566" transform="rotate(147.375 80.8093 69.5061)" fill="white" fill-opacity="0.8"/>
<circle opacity="0.0243326" cx="373.95" cy="183.87" r="0.614566" transform="rotate(1.34686 373.95 183.87)" fill="white" fill-opacity="0.8"/>
<circle opacity="0.0416476" cx="71.4616" cy="431.133" r="0.614566" transform="rotate(-126.427 71.4616 431.133)" fill="white" fill-opacity="0.8"/>
<circle opacity="0.64903" cx="263.121" cy="317.841" r="0.614566" transform="rotate(-152.287 263.121 317.841)" fill="white" fill-opacity="0.8"/>
</g>
<defs>
<filter id="filter0_f_1082_4810" x="-143" y="3420" width="866" height="791" filterUnits="userSpaceOnUse" color-interpolation-filters="sRGB">
<feFlood flood-opacity="0" result="BackgroundImageFix"/>
<feBlend mode="normal" in="SourceGraphic" in2="BackgroundImageFix" result="shape"/>
<feGaussianBlur stdDeviation="120" result="effect1_foregroundBlur_1082_4810"/>
</filter>
<filter id="filter1_f_1082_4810" x="-151" y="1670" width="878" height="801" filterUnits="userSpaceOnUse" color-interpolation-filters="sRGB">
<feFlood flood-opacity="0" result="BackgroundImageFix"/>
<feBlend mode="normal" in="SourceGraphic" in2="BackgroundImageFix" result="shape"/>
<feGaussianBlur stdDeviation="120" result="effect1_foregroundBlur_1082_4810"/>
</filter>
<filter id="filter2_f_1082_4810" x="-313" y="2435" width="866" height="791" filterUnits="userSpaceOnUse" color-interpolation-filters="sRGB">
<feFlood flood-opacity="0" result="BackgroundImageFix"/>
<feBlend mode="normal" in="SourceGraphic" in2="BackgroundImageFix" result="shape"/>
<feGaussianBlur stdDeviation="120" result="effect1_foregroundBlur_1082_4810"/>
</filter>
<filter id="filter3_f_1082_4810" x="-803.35" y="-365.116" width="1682.51" height="1752.78" filterUnits="userSpaceOnUse" color-interpolation-filters="sRGB">
<feFlood flood-opacity="0" result="BackgroundImageFix"/>
<feBlend mode="normal" in="SourceGraphic" in2="BackgroundImageFix" result="shape"/>
<feGaussianBlur stdDeviation="298.95" result="effect1_foregroundBlur_1082_4810"/>
</filter>
<linearGradient id="paint0_linear_1082_4810" x1="1039.6" y1="1.59481e-06" x2="1039.6" y2="782.903" gradientUnits="userSpaceOnUse">
<stop stop-color="white"/>
<stop offset="1" stop-color="white" stop-opacity="0"/>
</linearGradient>
<linearGradient id="paint1_linear_1082_4810" x1="1039.6" y1="1600" x2="1039.6" y2="2532.07" gradientUnits="userSpaceOnUse">
<stop stop-color="white" stop-opacity="0"/>
<stop offset="0.545" stop-color="white"/>
<stop offset="1" stop-color="white" stop-opacity="0"/>
</linearGradient>
<linearGradient id="paint2_linear_1082_4810" x1="1039.6" y1="3333" x2="1039.6" y2="4265.07" gradientUnits="userSpaceOnUse">
<stop stop-color="white" stop-opacity="0"/>
<stop offset="0.545" stop-color="white"/>
<stop offset="1" stop-color="white" stop-opacity="0"/>
</linearGradient>
<clipPath id="clip0_1082_4810">
<rect width="380" height="5003" fill="white"/>
</clipPath>
</defs>
</svg>
